<svg width="148" height="148" viewBox="0 0 148 148" fill="none" xmlns="http://www.w3.org/2000/svg">
<path d="M148 58.1906V116.511H123.529V62.9684C123.529 56.3632 119.697 52.9907 106.283 52.9907C87.1194 52.9907 86.2353 59.1738 86.2353 69.0108L86.2023 116.511H61.7281V106.604C57.0111 112.787 51.8883 116.511 33.9045 116.511C17.0997 116.511 0 113.841 0 89.8102V31.4894H24.4698V85.0317C24.4698 91.6368 28.3027 95.15 41.717 95.15C59.1012 95.15 61.4428 89.9464 61.7281 81.6368C61.7572 80.786 61.7647 79.9025 61.7647 78.9892L61.7281 31.4894H86.2353L86.2023 41.0428C90.9388 34.8411 96.2606 31.4953 114.095 31.4894C130.9 31.4894 148 34.3 148 58.1906Z" fill="url(#paint0_linear_330_195)"/>
<path d="M148 58.1906V116.511H123.529V62.9684C123.529 56.3632 119.697 52.9907 106.283 52.9907C87.1194 52.9907 86.2353 59.1738 86.2353 69.0108L86.2023 116.511H61.7281V106.604C57.0111 112.787 51.8883 116.511 33.9045 116.511C17.0997 116.511 0 113.841 0 89.8102V31.4894H24.4698V85.0317C24.4698 91.6368 28.3027 95.15 41.717 95.15C59.1012 95.15 61.4428 89.9464 61.7281 81.6368C61.7572 80.786 61.7647 79.9025 61.7647 78.9892L61.7281 31.4894H86.2353L86.2023 41.0428C90.9388 34.8411 96.2606 31.4953 114.095 31.4894C130.9 31.4894 148 34.3 148 58.1906Z" fill="black" fill-opacity="0.2"/>
<defs>
<linearGradient id="paint0_linear_330_195" x1="137.208" y1="9.62102" x2="39.3041" y2="151.169" gradientUnits="userSpaceOnUse">
<stop stop-color="#726DA8"/>
<stop offset="1" stop-color="#E49273"/>
</linearGradient>
</defs>
</svg>
